<mxfile host="app.diagrams.net" modified="2024-03-29T15:21:54.660Z" agent="Mozilla/5.0 (Windows NT 10.0; Win64; x64) AppleWebKit/537.36 (KHTML, like Gecko) Chrome/123.0.0.0 Safari/537.36" etag="OBFyCqKIj4iFAvHwNr08" version="24.2.1" type="device">
  <diagram name="Page-1" id="ZmnFE4StRouABHLna4OC">
    <mxGraphModel dx="1430" dy="781" grid="1" gridSize="10" guides="1" tooltips="1" connect="1" arrows="1" fold="1" page="1" pageScale="1" pageWidth="1100" pageHeight="850" math="0" shadow="0">
      <root>
        <mxCell id="0" />
        <mxCell id="1" parent="0" />
        <mxCell id="NFUUZVnlzttRC69et4Gi-227" style="edgeStyle=orthogonalEdgeStyle;rounded=0;orthogonalLoop=1;jettySize=auto;html=1;entryX=0;entryY=0.5;entryDx=0;entryDy=0;" parent="1" source="NFUUZVnlzttRC69et4Gi-1" target="NFUUZVnlzttRC69et4Gi-222" edge="1">
          <mxGeometry relative="1" as="geometry" />
        </mxCell>
        <mxCell id="NFUUZVnlzttRC69et4Gi-228" style="edgeStyle=orthogonalEdgeStyle;rounded=0;orthogonalLoop=1;jettySize=auto;html=1;exitX=1;exitY=0.5;exitDx=0;exitDy=0;entryX=0;entryY=0.5;entryDx=0;entryDy=0;" parent="1" source="NFUUZVnlzttRC69et4Gi-1" target="NFUUZVnlzttRC69et4Gi-224" edge="1">
          <mxGeometry relative="1" as="geometry" />
        </mxCell>
        <mxCell id="NFUUZVnlzttRC69et4Gi-1" value="Input RSID lists (CSVs).&lt;div&gt;Each list represents a study (GWAS)&lt;/div&gt;" style="rounded=0;whiteSpace=wrap;html=1;" parent="1" vertex="1">
          <mxGeometry x="45" y="70" width="180" height="110" as="geometry" />
        </mxCell>
        <mxCell id="NFUUZVnlzttRC69et4Gi-4" value="Data retrieved from dbSNP and Ensemble are exported to CSV files." style="rounded=0;whiteSpace=wrap;html=1;" parent="1" vertex="1">
          <mxGeometry x="880" y="60" width="150" height="110" as="geometry" />
        </mxCell>
        <mxCell id="NFUUZVnlzttRC69et4Gi-27" value="A matrix is created where each row is a RSID followed by its previous merged RSIDs for each study&#39;s RSID list." style="rounded=0;whiteSpace=wrap;html=1;" parent="1" vertex="1">
          <mxGeometry x="540" y="220" width="190" height="80" as="geometry" />
        </mxCell>
        <mxCell id="NFUUZVnlzttRC69et4Gi-29" value="rs00010" style="rounded=0;whiteSpace=wrap;html=1;" parent="1" vertex="1">
          <mxGeometry x="150" y="410" width="120" height="20" as="geometry" />
        </mxCell>
        <mxCell id="NFUUZVnlzttRC69et4Gi-30" value="rs00002" style="rounded=0;whiteSpace=wrap;html=1;" parent="1" vertex="1">
          <mxGeometry x="270" y="410" width="120" height="20" as="geometry" />
        </mxCell>
        <mxCell id="NFUUZVnlzttRC69et4Gi-31" value="rs00001" style="rounded=0;whiteSpace=wrap;html=1;" parent="1" vertex="1">
          <mxGeometry x="390" y="410" width="120" height="20" as="geometry" />
        </mxCell>
        <mxCell id="NFUUZVnlzttRC69et4Gi-32" value="rs00033" style="rounded=0;whiteSpace=wrap;html=1;" parent="1" vertex="1">
          <mxGeometry x="150" y="430" width="120" height="20" as="geometry" />
        </mxCell>
        <mxCell id="NFUUZVnlzttRC69et4Gi-33" value="rs00025" style="rounded=0;whiteSpace=wrap;html=1;" parent="1" vertex="1">
          <mxGeometry x="270" y="430" width="120" height="20" as="geometry" />
        </mxCell>
        <mxCell id="NFUUZVnlzttRC69et4Gi-34" value="rs00003" style="rounded=0;whiteSpace=wrap;html=1;" parent="1" vertex="1">
          <mxGeometry x="390" y="430" width="120" height="20" as="geometry" />
        </mxCell>
        <mxCell id="NFUUZVnlzttRC69et4Gi-35" value="rs00022" style="rounded=0;whiteSpace=wrap;html=1;" parent="1" vertex="1">
          <mxGeometry x="150" y="450" width="120" height="20" as="geometry" />
        </mxCell>
        <mxCell id="NFUUZVnlzttRC69et4Gi-36" value="rs00020" style="rounded=0;whiteSpace=wrap;html=1;" parent="1" vertex="1">
          <mxGeometry x="270" y="450" width="120" height="20" as="geometry" />
        </mxCell>
        <mxCell id="NFUUZVnlzttRC69et4Gi-37" value="rs00005" style="rounded=0;whiteSpace=wrap;html=1;" parent="1" vertex="1">
          <mxGeometry x="390" y="450" width="120" height="20" as="geometry" />
        </mxCell>
        <mxCell id="NFUUZVnlzttRC69et4Gi-38" value="rs00040" style="rounded=0;whiteSpace=wrap;html=1;" parent="1" vertex="1">
          <mxGeometry x="600" y="410" width="120" height="20" as="geometry" />
        </mxCell>
        <mxCell id="NFUUZVnlzttRC69et4Gi-39" value="rs00039" style="rounded=0;whiteSpace=wrap;html=1;" parent="1" vertex="1">
          <mxGeometry x="720" y="410" width="120" height="20" as="geometry" />
        </mxCell>
        <mxCell id="NFUUZVnlzttRC69et4Gi-40" value="" style="rounded=0;whiteSpace=wrap;html=1;" parent="1" vertex="1">
          <mxGeometry x="840" y="410" width="120" height="20" as="geometry" />
        </mxCell>
        <mxCell id="NFUUZVnlzttRC69et4Gi-41" value="rs00034" style="rounded=0;whiteSpace=wrap;html=1;" parent="1" vertex="1">
          <mxGeometry x="600" y="430" width="120" height="20" as="geometry" />
        </mxCell>
        <mxCell id="NFUUZVnlzttRC69et4Gi-42" value="rs00060" style="rounded=0;whiteSpace=wrap;html=1;" parent="1" vertex="1">
          <mxGeometry x="720" y="430" width="120" height="20" as="geometry" />
        </mxCell>
        <mxCell id="NFUUZVnlzttRC69et4Gi-43" value="rs00001" style="rounded=0;whiteSpace=wrap;html=1;" parent="1" vertex="1">
          <mxGeometry x="840" y="430" width="120" height="20" as="geometry" />
        </mxCell>
        <mxCell id="NFUUZVnlzttRC69et4Gi-44" value="rs00111" style="rounded=0;whiteSpace=wrap;html=1;" parent="1" vertex="1">
          <mxGeometry x="600" y="450" width="120" height="20" as="geometry" />
        </mxCell>
        <mxCell id="NFUUZVnlzttRC69et4Gi-45" value="rs00099" style="rounded=0;whiteSpace=wrap;html=1;" parent="1" vertex="1">
          <mxGeometry x="720" y="450" width="120" height="20" as="geometry" />
        </mxCell>
        <mxCell id="NFUUZVnlzttRC69et4Gi-46" value="rs00090" style="rounded=0;whiteSpace=wrap;html=1;" parent="1" vertex="1">
          <mxGeometry x="840" y="450" width="120" height="20" as="geometry" />
        </mxCell>
        <mxCell id="NFUUZVnlzttRC69et4Gi-47" value="..." style="rounded=0;whiteSpace=wrap;html=1;" parent="1" vertex="1">
          <mxGeometry x="150" y="470" width="120" height="20" as="geometry" />
        </mxCell>
        <mxCell id="NFUUZVnlzttRC69et4Gi-48" value="..." style="rounded=0;whiteSpace=wrap;html=1;" parent="1" vertex="1">
          <mxGeometry x="270" y="470" width="120" height="20" as="geometry" />
        </mxCell>
        <mxCell id="NFUUZVnlzttRC69et4Gi-49" value="..." style="rounded=0;whiteSpace=wrap;html=1;" parent="1" vertex="1">
          <mxGeometry x="390" y="470" width="120" height="20" as="geometry" />
        </mxCell>
        <mxCell id="NFUUZVnlzttRC69et4Gi-56" value="" style="endArrow=classic;html=1;rounded=0;exitX=1;exitY=0.5;exitDx=0;exitDy=0;entryX=0;entryY=0.25;entryDx=0;entryDy=0;" parent="1" source="NFUUZVnlzttRC69et4Gi-31" target="NFUUZVnlzttRC69et4Gi-38" edge="1">
          <mxGeometry width="50" height="50" relative="1" as="geometry">
            <mxPoint x="520" y="480" as="sourcePoint" />
            <mxPoint x="570" y="430" as="targetPoint" />
          </mxGeometry>
        </mxCell>
        <mxCell id="NFUUZVnlzttRC69et4Gi-57" value="" style="endArrow=classic;html=1;rounded=0;entryX=0;entryY=0.25;entryDx=0;entryDy=0;exitX=1;exitY=0.25;exitDx=0;exitDy=0;" parent="1" source="NFUUZVnlzttRC69et4Gi-31" target="NFUUZVnlzttRC69et4Gi-41" edge="1">
          <mxGeometry width="50" height="50" relative="1" as="geometry">
            <mxPoint x="510" y="410" as="sourcePoint" />
            <mxPoint x="570" y="430" as="targetPoint" />
            <Array as="points" />
          </mxGeometry>
        </mxCell>
        <mxCell id="NFUUZVnlzttRC69et4Gi-58" value="" style="endArrow=classic;html=1;rounded=0;entryX=0;entryY=0.5;entryDx=0;entryDy=0;" parent="1" target="NFUUZVnlzttRC69et4Gi-44" edge="1">
          <mxGeometry width="50" height="50" relative="1" as="geometry">
            <mxPoint x="510" y="420" as="sourcePoint" />
            <mxPoint x="570" y="430" as="targetPoint" />
          </mxGeometry>
        </mxCell>
        <mxCell id="NFUUZVnlzttRC69et4Gi-59" value="" style="endArrow=classic;html=1;rounded=0;exitX=1;exitY=0.5;exitDx=0;exitDy=0;entryX=0;entryY=0.75;entryDx=0;entryDy=0;opacity=50;" parent="1" source="NFUUZVnlzttRC69et4Gi-34" target="NFUUZVnlzttRC69et4Gi-38" edge="1">
          <mxGeometry width="50" height="50" relative="1" as="geometry">
            <mxPoint x="520" y="480" as="sourcePoint" />
            <mxPoint x="570" y="430" as="targetPoint" />
          </mxGeometry>
        </mxCell>
        <mxCell id="NFUUZVnlzttRC69et4Gi-60" value="" style="endArrow=classic;html=1;rounded=0;exitX=1;exitY=0.5;exitDx=0;exitDy=0;entryX=0;entryY=0.5;entryDx=0;entryDy=0;curved=0;opacity=50;" parent="1" source="NFUUZVnlzttRC69et4Gi-34" target="NFUUZVnlzttRC69et4Gi-41" edge="1">
          <mxGeometry width="50" height="50" relative="1" as="geometry">
            <mxPoint x="520" y="480" as="sourcePoint" />
            <mxPoint x="570" y="430" as="targetPoint" />
            <Array as="points">
              <mxPoint x="600" y="440" />
            </Array>
          </mxGeometry>
        </mxCell>
        <mxCell id="NFUUZVnlzttRC69et4Gi-61" value="" style="endArrow=classic;html=1;rounded=0;exitX=1;exitY=0.5;exitDx=0;exitDy=0;entryX=0;entryY=0.75;entryDx=0;entryDy=0;opacity=50;" parent="1" source="NFUUZVnlzttRC69et4Gi-34" target="NFUUZVnlzttRC69et4Gi-44" edge="1">
          <mxGeometry width="50" height="50" relative="1" as="geometry">
            <mxPoint x="520" y="480" as="sourcePoint" />
            <mxPoint x="570" y="430" as="targetPoint" />
            <Array as="points" />
          </mxGeometry>
        </mxCell>
        <mxCell id="NFUUZVnlzttRC69et4Gi-62" value="..." style="edgeLabel;html=1;align=center;verticalAlign=middle;resizable=0;points=[];rotation=20;" parent="NFUUZVnlzttRC69et4Gi-61" vertex="1" connectable="0">
          <mxGeometry x="0.0191" y="-1" relative="1" as="geometry">
            <mxPoint x="-6" y="-6" as="offset" />
          </mxGeometry>
        </mxCell>
        <mxCell id="NFUUZVnlzttRC69et4Gi-63" value="STUDY 1" style="whiteSpace=wrap;html=1;" parent="1" vertex="1">
          <mxGeometry x="150" y="360" width="360" height="30" as="geometry" />
        </mxCell>
        <mxCell id="NFUUZVnlzttRC69et4Gi-64" value="STUDY 2" style="whiteSpace=wrap;html=1;" parent="1" vertex="1">
          <mxGeometry x="600" y="360" width="360" height="30" as="geometry" />
        </mxCell>
        <mxCell id="NFUUZVnlzttRC69et4Gi-65" value="A" style="whiteSpace=wrap;html=1;" parent="1" vertex="1">
          <mxGeometry x="120" y="410" width="30" height="20" as="geometry" />
        </mxCell>
        <mxCell id="NFUUZVnlzttRC69et4Gi-66" value="B" style="whiteSpace=wrap;html=1;" parent="1" vertex="1">
          <mxGeometry x="120" y="430" width="30" height="20" as="geometry" />
        </mxCell>
        <mxCell id="NFUUZVnlzttRC69et4Gi-67" value="C" style="whiteSpace=wrap;html=1;" parent="1" vertex="1">
          <mxGeometry x="120" y="450" width="30" height="20" as="geometry" />
        </mxCell>
        <mxCell id="NFUUZVnlzttRC69et4Gi-68" value="D" style="whiteSpace=wrap;html=1;" parent="1" vertex="1">
          <mxGeometry x="120" y="470" width="30" height="20" as="geometry" />
        </mxCell>
        <mxCell id="NFUUZVnlzttRC69et4Gi-70" value="..." style="rounded=0;whiteSpace=wrap;html=1;" parent="1" vertex="1">
          <mxGeometry x="600" y="470" width="120" height="20" as="geometry" />
        </mxCell>
        <mxCell id="NFUUZVnlzttRC69et4Gi-71" value="..." style="rounded=0;whiteSpace=wrap;html=1;" parent="1" vertex="1">
          <mxGeometry x="720" y="470" width="120" height="20" as="geometry" />
        </mxCell>
        <mxCell id="NFUUZVnlzttRC69et4Gi-72" value="..." style="rounded=0;whiteSpace=wrap;html=1;" parent="1" vertex="1">
          <mxGeometry x="840" y="470" width="120" height="20" as="geometry" />
        </mxCell>
        <mxCell id="NFUUZVnlzttRC69et4Gi-74" value="" style="endArrow=none;html=1;rounded=0;" parent="1" edge="1">
          <mxGeometry width="50" height="50" relative="1" as="geometry">
            <mxPoint x="110" y="330" as="sourcePoint" />
            <mxPoint x="970" y="330" as="targetPoint" />
          </mxGeometry>
        </mxCell>
        <mxCell id="NFUUZVnlzttRC69et4Gi-76" value="" style="endArrow=none;html=1;rounded=0;" parent="1" edge="1">
          <mxGeometry width="50" height="50" relative="1" as="geometry">
            <mxPoint x="110" y="500" as="sourcePoint" />
            <mxPoint x="110" y="330" as="targetPoint" />
          </mxGeometry>
        </mxCell>
        <mxCell id="NFUUZVnlzttRC69et4Gi-77" value="" style="endArrow=none;html=1;rounded=0;" parent="1" edge="1">
          <mxGeometry width="50" height="50" relative="1" as="geometry">
            <mxPoint x="110" y="500" as="sourcePoint" />
            <mxPoint x="970" y="500" as="targetPoint" />
          </mxGeometry>
        </mxCell>
        <mxCell id="NFUUZVnlzttRC69et4Gi-78" value="" style="endArrow=none;html=1;rounded=0;" parent="1" edge="1">
          <mxGeometry width="50" height="50" relative="1" as="geometry">
            <mxPoint x="970" y="500" as="sourcePoint" />
            <mxPoint x="970" y="330" as="targetPoint" />
          </mxGeometry>
        </mxCell>
        <mxCell id="NFUUZVnlzttRC69et4Gi-81" value="Algorithm: Each row of the matrix is compared to each row of the other matrix to find the intersection of the studies.&amp;nbsp;&amp;nbsp;" style="text;html=1;align=center;verticalAlign=middle;whiteSpace=wrap;rounded=0;" parent="1" vertex="1">
          <mxGeometry x="190" y="330" width="740" height="30" as="geometry" />
        </mxCell>
        <mxCell id="NFUUZVnlzttRC69et4Gi-166" value="rs00010" style="rounded=0;whiteSpace=wrap;html=1;" parent="1" vertex="1">
          <mxGeometry x="250" y="610" width="120" height="20" as="geometry" />
        </mxCell>
        <mxCell id="NFUUZVnlzttRC69et4Gi-167" value="rs00002" style="rounded=0;whiteSpace=wrap;html=1;" parent="1" vertex="1">
          <mxGeometry x="370" y="610" width="120" height="20" as="geometry" />
        </mxCell>
        <mxCell id="NFUUZVnlzttRC69et4Gi-168" value="rs00001" style="rounded=0;whiteSpace=wrap;html=1;" parent="1" vertex="1">
          <mxGeometry x="490" y="610" width="120" height="20" as="geometry" />
        </mxCell>
        <mxCell id="NFUUZVnlzttRC69et4Gi-178" value="rs00034" style="rounded=0;whiteSpace=wrap;html=1;" parent="1" vertex="1">
          <mxGeometry x="250" y="630" width="120" height="20" as="geometry" />
        </mxCell>
        <mxCell id="NFUUZVnlzttRC69et4Gi-179" value="rs00060" style="rounded=0;whiteSpace=wrap;html=1;" parent="1" vertex="1">
          <mxGeometry x="370" y="630" width="120" height="20" as="geometry" />
        </mxCell>
        <mxCell id="NFUUZVnlzttRC69et4Gi-180" value="rs00001" style="rounded=0;whiteSpace=wrap;html=1;" parent="1" vertex="1">
          <mxGeometry x="490" y="630" width="120" height="20" as="geometry" />
        </mxCell>
        <mxCell id="NFUUZVnlzttRC69et4Gi-194" value="Intersection (Study 1 vs Study 2)" style="whiteSpace=wrap;html=1;" parent="1" vertex="1">
          <mxGeometry x="250" y="580" width="360" height="30" as="geometry" />
        </mxCell>
        <mxCell id="NFUUZVnlzttRC69et4Gi-196" value="Study 1, Row a" style="whiteSpace=wrap;html=1;" parent="1" vertex="1">
          <mxGeometry x="150" y="610" width="100" height="20" as="geometry" />
        </mxCell>
        <mxCell id="NFUUZVnlzttRC69et4Gi-197" value="Study 2, Row b" style="whiteSpace=wrap;html=1;" parent="1" vertex="1">
          <mxGeometry x="150" y="630" width="100" height="20" as="geometry" />
        </mxCell>
        <mxCell id="NFUUZVnlzttRC69et4Gi-203" value="" style="endArrow=none;html=1;rounded=0;" parent="1" edge="1">
          <mxGeometry width="50" height="50" relative="1" as="geometry">
            <mxPoint x="110" y="550" as="sourcePoint" />
            <mxPoint x="740" y="550" as="targetPoint" />
          </mxGeometry>
        </mxCell>
        <mxCell id="NFUUZVnlzttRC69et4Gi-204" value="" style="endArrow=none;html=1;rounded=0;" parent="1" edge="1">
          <mxGeometry width="50" height="50" relative="1" as="geometry">
            <mxPoint x="110" y="660" as="sourcePoint" />
            <mxPoint x="110" y="550" as="targetPoint" />
          </mxGeometry>
        </mxCell>
        <mxCell id="NFUUZVnlzttRC69et4Gi-205" value="" style="endArrow=none;html=1;rounded=0;" parent="1" edge="1">
          <mxGeometry width="50" height="50" relative="1" as="geometry">
            <mxPoint x="110" y="660" as="sourcePoint" />
            <mxPoint x="740" y="660" as="targetPoint" />
          </mxGeometry>
        </mxCell>
        <mxCell id="NFUUZVnlzttRC69et4Gi-206" value="" style="endArrow=none;html=1;rounded=0;" parent="1" edge="1">
          <mxGeometry width="50" height="50" relative="1" as="geometry">
            <mxPoint x="740" y="660" as="sourcePoint" />
            <mxPoint x="740" y="550" as="targetPoint" />
          </mxGeometry>
        </mxCell>
        <mxCell id="NFUUZVnlzttRC69et4Gi-207" value="Result: Study 1 row A includes one RSID that is also in study 2 row b (rs00001), therefore they are the same SNP.&amp;nbsp;" style="text;html=1;align=center;verticalAlign=middle;whiteSpace=wrap;rounded=0;" parent="1" vertex="1">
          <mxGeometry x="110" y="550" width="620" height="20" as="geometry" />
        </mxCell>
        <mxCell id="NFUUZVnlzttRC69et4Gi-209" value="" style="endArrow=classic;html=1;rounded=0;entryX=0.613;entryY=-0.04;entryDx=0;entryDy=0;entryPerimeter=0;" parent="1" target="NFUUZVnlzttRC69et4Gi-207" edge="1">
          <mxGeometry width="50" height="50" relative="1" as="geometry">
            <mxPoint x="490" y="500" as="sourcePoint" />
            <mxPoint x="540" y="440" as="targetPoint" />
          </mxGeometry>
        </mxCell>
        <mxCell id="NFUUZVnlzttRC69et4Gi-210" value="..." style="text;html=1;align=center;verticalAlign=middle;whiteSpace=wrap;rounded=0;" parent="1" vertex="1">
          <mxGeometry x="520" y="450" width="60" height="30" as="geometry" />
        </mxCell>
        <mxCell id="NFUUZVnlzttRC69et4Gi-212" value="Original RSID" style="rounded=0;whiteSpace=wrap;html=1;" parent="1" vertex="1">
          <mxGeometry x="150" y="390" width="120" height="20" as="geometry" />
        </mxCell>
        <mxCell id="NFUUZVnlzttRC69et4Gi-213" value="Previous merged RSIDs" style="rounded=0;whiteSpace=wrap;html=1;" parent="1" vertex="1">
          <mxGeometry x="270" y="390" width="240" height="20" as="geometry" />
        </mxCell>
        <mxCell id="NFUUZVnlzttRC69et4Gi-214" value="Original RSID" style="rounded=0;whiteSpace=wrap;html=1;" parent="1" vertex="1">
          <mxGeometry x="600" y="390" width="120" height="20" as="geometry" />
        </mxCell>
        <mxCell id="NFUUZVnlzttRC69et4Gi-215" value="Previous merged RSIDs" style="rounded=0;whiteSpace=wrap;html=1;" parent="1" vertex="1">
          <mxGeometry x="720" y="390" width="240" height="20" as="geometry" />
        </mxCell>
        <mxCell id="NFUUZVnlzttRC69et4Gi-216" value="Repeat for each study pair." style="rounded=0;whiteSpace=wrap;html=1;" parent="1" vertex="1">
          <mxGeometry x="790" y="580" width="180" height="60" as="geometry" />
        </mxCell>
        <mxCell id="NFUUZVnlzttRC69et4Gi-217" value="" style="endArrow=classic;html=1;rounded=0;entryX=0;entryY=0.5;entryDx=0;entryDy=0;" parent="1" target="NFUUZVnlzttRC69et4Gi-216" edge="1">
          <mxGeometry width="50" height="50" relative="1" as="geometry">
            <mxPoint x="740" y="610" as="sourcePoint" />
            <mxPoint x="790" y="560" as="targetPoint" />
          </mxGeometry>
        </mxCell>
        <mxCell id="NFUUZVnlzttRC69et4Gi-218" value="" style="endArrow=classic;html=1;rounded=0;exitX=0.5;exitY=0;exitDx=0;exitDy=0;" parent="1" source="NFUUZVnlzttRC69et4Gi-216" edge="1">
          <mxGeometry width="50" height="50" relative="1" as="geometry">
            <mxPoint x="600" y="550" as="sourcePoint" />
            <mxPoint x="880" y="500" as="targetPoint" />
          </mxGeometry>
        </mxCell>
        <mxCell id="NFUUZVnlzttRC69et4Gi-219" value="" style="endArrow=classic;html=1;rounded=0;" parent="1" edge="1">
          <mxGeometry width="50" height="50" relative="1" as="geometry">
            <mxPoint x="430" y="660" as="sourcePoint" />
            <mxPoint x="430" y="720" as="targetPoint" />
          </mxGeometry>
        </mxCell>
        <mxCell id="NFUUZVnlzttRC69et4Gi-220" value="Intersections exported to CSV files" style="rounded=0;whiteSpace=wrap;html=1;" parent="1" vertex="1">
          <mxGeometry x="370" y="720" width="120" height="60" as="geometry" />
        </mxCell>
        <mxCell id="NFUUZVnlzttRC69et4Gi-231" style="edgeStyle=orthogonalEdgeStyle;rounded=0;orthogonalLoop=1;jettySize=auto;html=1;exitX=0.5;exitY=1;exitDx=0;exitDy=0;entryX=0;entryY=0.5;entryDx=0;entryDy=0;" parent="1" source="NFUUZVnlzttRC69et4Gi-222" target="NFUUZVnlzttRC69et4Gi-27" edge="1">
          <mxGeometry relative="1" as="geometry" />
        </mxCell>
        <mxCell id="NFUUZVnlzttRC69et4Gi-222" value="Data is retrieved from dbSNP (Merged RSIDs (previous RSIDs), Merged Dates, Locus, Gene Name, Orientation, Sequence Ontology, and ClinVar)&amp;nbsp;" style="rounded=0;whiteSpace=wrap;html=1;" parent="1" vertex="1">
          <mxGeometry x="260" y="120" width="240" height="90" as="geometry" />
        </mxCell>
        <mxCell id="NFUUZVnlzttRC69et4Gi-224" value="GRCh37 and GRCh38 Positions are retrieved from Ensembl" style="rounded=0;whiteSpace=wrap;html=1;" parent="1" vertex="1">
          <mxGeometry x="280" y="40" width="180" height="60" as="geometry" />
        </mxCell>
        <mxCell id="NFUUZVnlzttRC69et4Gi-232" style="edgeStyle=orthogonalEdgeStyle;rounded=0;orthogonalLoop=1;jettySize=auto;html=1;exitX=1;exitY=0.5;exitDx=0;exitDy=0;" parent="1" source="NFUUZVnlzttRC69et4Gi-225" target="NFUUZVnlzttRC69et4Gi-4" edge="1">
          <mxGeometry relative="1" as="geometry" />
        </mxCell>
        <mxCell id="NFUUZVnlzttRC69et4Gi-225" value="Using Locus names from dbSNP, Gene length is retrieved from Ensembl" style="rounded=0;whiteSpace=wrap;html=1;" parent="1" vertex="1">
          <mxGeometry x="630" y="110" width="150" height="90" as="geometry" />
        </mxCell>
        <mxCell id="NFUUZVnlzttRC69et4Gi-229" style="edgeStyle=orthogonalEdgeStyle;rounded=0;orthogonalLoop=1;jettySize=auto;html=1;exitX=1;exitY=0.5;exitDx=0;exitDy=0;entryX=0;entryY=0.25;entryDx=0;entryDy=0;" parent="1" source="NFUUZVnlzttRC69et4Gi-224" target="NFUUZVnlzttRC69et4Gi-4" edge="1">
          <mxGeometry relative="1" as="geometry" />
        </mxCell>
        <mxCell id="NFUUZVnlzttRC69et4Gi-230" style="edgeStyle=orthogonalEdgeStyle;rounded=0;orthogonalLoop=1;jettySize=auto;html=1;exitX=1;exitY=0.5;exitDx=0;exitDy=0;entryX=-0.01;entryY=0.437;entryDx=0;entryDy=0;entryPerimeter=0;" parent="1" source="NFUUZVnlzttRC69et4Gi-222" target="NFUUZVnlzttRC69et4Gi-225" edge="1">
          <mxGeometry relative="1" as="geometry" />
        </mxCell>
        <mxCell id="NFUUZVnlzttRC69et4Gi-235" value="" style="endArrow=classic;html=1;rounded=0;exitX=1;exitY=0.5;exitDx=0;exitDy=0;entryX=0.81;entryY=-0.046;entryDx=0;entryDy=0;entryPerimeter=0;" parent="1" source="NFUUZVnlzttRC69et4Gi-27" target="NFUUZVnlzttRC69et4Gi-81" edge="1">
          <mxGeometry width="50" height="50" relative="1" as="geometry">
            <mxPoint x="560" y="320" as="sourcePoint" />
            <mxPoint x="790" y="320" as="targetPoint" />
            <Array as="points">
              <mxPoint x="790" y="260" />
            </Array>
          </mxGeometry>
        </mxCell>
      </root>
    </mxGraphModel>
  </diagram>
</mxfile>
